<svg xmlns="http://www.w3.org/2000/svg"  viewBox="0 0 100 100" width="50px" height="50px"><circle cx="13" cy="29" r="2" fill="#ee3e54"/><circle cx="77" cy="13" r="1" fill="#f1bc19"/><circle cx="50" cy="50" r="37" fill="#fce0a2"/><circle cx="83" cy="15" r="4" fill="#f1bc19"/><circle cx="87" cy="24" r="2" fill="#ee3e54"/><circle cx="81" cy="76" r="2" fill="#fbcd59"/><circle cx="15" cy="63" r="4" fill="#fbcd59"/><circle cx="25" cy="87" r="2" fill="#ee3e54"/><circle cx="18.5" cy="53.5" r="2.5" fill="#fff"/><circle cx="21" cy="67" r="1" fill="#f1bc19"/><circle cx="80" cy="34" r="1" fill="#fff"/><g><path fill="#ec795a" d="M35,72.3c-4.025,0-7.3-3.274-7.3-7.3V35c0-4.025,3.274-7.3,7.3-7.3h30c4.025,0,7.3,3.274,7.3,7.3 v30c0,4.025-3.274,7.3-7.3,7.3H35z"/><path fill="#472b29" d="M65,28.4c3.639,0,6.6,2.961,6.6,6.6v30c0,3.639-2.961,6.6-6.6,6.6H35c-3.639,0-6.6-2.961-6.6-6.6 V35c0-3.639,2.961-6.6,6.6-6.6H65 M65,27H35c-4.4,0-8,3.6-8,8v30c0,4.4,3.6,8,8,8h30c4.4,0,8-3.6,8-8V35C73,30.6,69.4,27,65,27 L65,27z"/></g><g><path fill="#fefdef" d="M62.391,69H37.609C33.974,69,31,66.026,31,62.391V37.609C31,33.974,33.974,31,37.609,31h24.783 C66.026,31,69,33.974,69,37.609v24.783C69,66.026,66.026,69,62.391,69z"/></g><g><path fill="#472b29" d="M68.5,47.375c-0.276,0-0.5-0.224-0.5-0.5V43c0-0.276,0.224-0.5,0.5-0.5S69,42.724,69,43v3.875 C69,47.151,68.776,47.375,68.5,47.375z"/></g><g><path fill="#472b29" d="M68.5,40.5c-0.276,0-0.5-0.224-0.5-0.5v-2c0-0.276,0.224-0.5,0.5-0.5S69,37.724,69,38v2 C69,40.276,68.776,40.5,68.5,40.5z"/></g><g><path fill="#472b29" d="M64,69H36c-2.757,0-5-2.243-5-5V36c0-2.757,2.243-5,5-5h25.375c0.276,0,0.5,0.224,0.5,0.5 s-0.224,0.5-0.5,0.5H36c-2.206,0-4,1.794-4,4v28c0,2.206,1.794,4,4,4h28c2.206,0,4-1.794,4-4V49.625c0-0.276,0.224-0.5,0.5-0.5 s0.5,0.224,0.5,0.5V64C69,66.757,66.757,69,64,69z"/></g><g><path fill="#ec795a" d="M41.889,55.733c-0.162-0.104-0.217-0.139-0.378-0.243c-0.005-1.835-0.005-3.669-0.005-5.509 c0-1.973,0.005-3.946-0.005-5.919c-0.001-0.213,0.132-0.404,0.332-0.475c3.474-1.24,6.937-2.496,10.41-3.741 c0.169-0.061,0.353-0.065,0.525-0.013c1.797,0.548,3.588,1.118,5.385,1.671c0.207,0.064,0.348,0.255,0.347,0.472 c-0.011,5.203-0.011,10.4,0,15.602c0,0.227-0.149,0.426-0.366,0.488c-1.791,0.518-3.57,1.051-5.361,1.563 c-0.164,0.048-0.373,0.043-0.537-0.011c-3.401-1.186-6.802-2.378-10.202-3.58c0.018-0.095,0.012-0.062,0.03-0.156 c3.493,0.399,7.332,0.671,10.805,1.086V42.9c-2.384,0.545-5.043,1.3-7.41,1.84c0,0.155,0,0.294,0,0.427 c0,2.857-0.011,5.714,0.011,8.571c0,0.411-0.663,0.691-1.068,0.851C43.399,54.991,42.816,55.318,41.889,55.733z"/><path d="M52.526,59.913c-0.127,0-0.255-0.019-0.368-0.056c-3.406-1.187-6.807-2.379-10.208-3.581 c-0.117-0.041-0.187-0.162-0.162-0.283l0.005-0.029c-0.013-0.005-0.025-0.012-0.038-0.02l-0.379-0.242 c-0.071-0.046-0.115-0.125-0.115-0.21c-0.006-1.835-0.006-3.671-0.006-5.511l0.001-1.544c0.001-1.458,0.002-2.915-0.006-4.374 c-0.001-0.318,0.199-0.604,0.498-0.711c1.985-0.709,3.967-1.423,5.949-2.137c1.486-0.535,2.973-1.071,4.461-1.604 c0.219-0.079,0.461-0.084,0.683-0.017c1.038,0.316,2.074,0.641,3.11,0.964c0.758,0.236,1.516,0.474,2.274,0.707 c0.313,0.097,0.524,0.382,0.524,0.711c-0.011,5.203-0.011,10.4,0,15.602c0,0.337-0.225,0.637-0.547,0.729 c-0.777,0.225-1.554,0.453-2.329,0.681c-1.01,0.297-2.02,0.594-3.032,0.883C52.745,59.899,52.636,59.913,52.526,59.913z M43.492,56.291c2.942,1.037,5.884,2.067,8.826,3.093c0.114,0.038,0.271,0.04,0.386,0.007c1.012-0.289,2.021-0.586,3.029-0.882 c0.776-0.229,1.553-0.456,2.331-0.682c0.109-0.031,0.186-0.134,0.186-0.248c-0.011-5.202-0.011-10.399,0-15.604 c0-0.106-0.068-0.2-0.171-0.231c-0.76-0.234-1.519-0.472-2.277-0.708c-1.035-0.323-2.07-0.646-3.107-0.963 c-0.119-0.036-0.251-0.033-0.368,0.009c-1.487,0.533-2.974,1.068-4.46,1.604c-1.982,0.715-3.965,1.429-5.95,2.138 c-0.1,0.036-0.167,0.131-0.166,0.238c0.008,1.459,0.007,2.918,0.006,4.376l-0.001,1.544c0,1.794,0,3.583,0.006,5.373l0.149,0.096 c0.297-0.136,0.56-0.262,0.817-0.385c0.488-0.235,0.95-0.456,1.581-0.71c0.604-0.239,0.911-0.446,0.911-0.618 c-0.017-2.157-0.015-4.316-0.013-6.476l0.001-2.522c0-0.116,0.081-0.218,0.194-0.244c1.188-0.27,2.472-0.601,3.714-0.921 c1.233-0.318,2.508-0.646,3.697-0.919c0.073-0.015,0.152,0.001,0.212,0.049c0.06,0.047,0.094,0.119,0.094,0.195v14.071 c0,0.071-0.03,0.14-0.084,0.187c-0.053,0.048-0.124,0.07-0.195,0.062c-1.829-0.219-3.792-0.4-5.69-0.576 C45.939,56.53,44.701,56.416,43.492,56.291z M42.578,55.69c1.504,0.166,3.084,0.313,4.617,0.454 c1.806,0.168,3.669,0.34,5.424,0.545V43.214c-1.094,0.256-2.254,0.555-3.378,0.845c-1.179,0.304-2.395,0.617-3.533,0.88 l-0.001,2.323c-0.002,2.158-0.004,4.316,0.013,6.474c0,0.601-0.828,0.928-1.227,1.085c-0.614,0.246-1.068,0.465-1.55,0.695 C42.824,55.573,42.703,55.632,42.578,55.69z"/></g></svg>